<?xml version="1.0" encoding="UTF-8" standalone="no"?><!-- Generator: Gravit.io --><svg xmlns="http://www.w3.org/2000/svg" xmlns:xlink="http://www.w3.org/1999/xlink" style="isolation:isolate" viewBox="0 0 500 500" width="500pt" height="500pt"><defs><clipPath id="_clipPath_84GA63yiTOwN7CR2yKiyLaSFZuU3SxsO"><rect width="500" height="500"/></clipPath></defs><g clip-path="url(#_clipPath_84GA63yiTOwN7CR2yKiyLaSFZuU3SxsO)"><path d=" M 203.018 37.251 L 300.066 63.255 L 397.115 89.259 C 403.066 90.854 409.193 96.98 410.787 102.932 L 436.791 199.98 L 462.795 297.029 C 464.39 302.98 462.148 311.349 457.791 315.706 L 386.746 386.75 L 315.702 457.795 C 311.345 462.152 302.976 464.394 297.025 462.799 L 199.976 436.795 L 102.928 410.791 C 96.976 409.197 90.85 403.07 89.255 397.119 L 63.251 300.07 L 37.247 203.022 C 35.652 197.07 37.895 188.701 42.252 184.345 L 113.296 113.3 L 184.341 42.256 C 188.697 37.899 197.066 35.656 203.018 37.251 Z " fill="rgb(255,153,0)" fill-opacity="0.88"/><path d=" M 187.904 266.67 C 178.718 232.386 199.094 197.094 233.377 187.908 C 267.66 178.722 302.952 199.098 312.138 233.381 C 321.325 267.664 300.949 302.956 266.665 312.142 C 232.382 321.329 197.09 300.953 187.904 266.67 Z " fill="rgb(255,255,255)"/><path d=" M 211.384 260.378 C 205.67 239.054 218.344 217.102 239.668 211.388 C 260.993 205.674 282.944 218.348 288.658 239.673 C 294.372 260.997 281.698 282.948 260.374 288.662 C 239.05 294.376 217.098 281.702 211.384 260.378 Z " fill="rgb(116,116,116)"/><g><path d=" M 164.953 43.814 C 160.84 28.461 169.964 12.657 185.316 8.544 C 200.669 4.43 216.473 13.555 220.586 28.907 C 224.7 44.259 215.576 60.063 200.223 64.177 C 184.871 68.29 169.067 59.166 164.953 43.814 Z " fill="rgb(255,255,255)"/><path d=" M 180.213 39.725 C 178.356 32.795 182.475 25.66 189.405 23.803 C 196.336 21.946 203.47 26.065 205.327 32.996 C 207.184 39.926 203.065 47.06 196.135 48.917 C 189.204 50.774 182.07 46.655 180.213 39.725 Z " fill="rgb(116,116,116)"/><line x1="199.362" y1="64.826" x2="191.201" y2="243.01" vector-effect="non-scaling-stroke" stroke-width="10" stroke="rgb(255,255,255)" stroke-linejoin="miter" stroke-linecap="square" stroke-miterlimit="3"/></g><g><path d=" M 385.99 73.185 C 397.223 61.942 415.472 61.933 426.716 73.167 C 437.96 84.4 437.968 102.649 426.735 113.893 C 415.501 125.137 397.252 125.145 386.009 113.912 C 374.765 102.678 374.756 84.429 385.99 73.185 Z " fill="rgb(255,255,255)"/><path d=" M 397.166 84.351 C 402.237 79.275 410.475 79.271 415.55 84.342 C 420.626 89.413 420.63 97.651 415.559 102.727 C 410.488 107.803 402.25 107.807 397.174 102.736 C 392.098 97.665 392.094 89.427 397.166 84.351 Z " fill="rgb(116,116,116)"/><line x1="385.015" y1="113.491" x2="226.661" y2="195.589" vector-effect="non-scaling-stroke" stroke-width="10" stroke="rgb(255,255,255)" stroke-linejoin="miter" stroke-linecap="square" stroke-miterlimit="3"/></g><g><path d=" M 471.154 279.324 C 486.507 283.436 495.632 299.24 491.519 314.592 C 487.407 329.945 471.603 339.07 456.251 334.957 C 440.898 330.845 431.773 315.041 435.886 299.689 C 439.998 284.336 455.802 275.211 471.154 279.324 Z " fill="rgb(255,255,255)"/><path d=" M 467.067 294.583 C 473.997 296.44 478.116 303.574 476.26 310.504 C 474.403 317.435 467.269 321.554 460.339 319.698 C 453.408 317.841 449.289 310.707 451.145 303.777 C 453.002 296.846 460.136 292.727 467.067 294.583 Z " fill="rgb(116,116,116)"/><line x1="435.754" y1="298.618" x2="285.517" y2="202.467" vector-effect="non-scaling-stroke" stroke-width="10" stroke="rgb(255,255,255)" stroke-linejoin="miter" stroke-linecap="square" stroke-miterlimit="3"/></g><g><path d=" M 335.144 456.092 C 339.252 471.446 330.122 487.247 314.768 491.355 C 299.414 495.463 283.614 486.333 279.506 470.979 C 275.397 455.626 284.527 439.825 299.881 435.717 C 315.235 431.608 331.035 440.738 335.144 456.092 Z " fill="rgb(255,255,255)"/><path d=" M 319.883 460.175 C 321.737 467.107 317.616 474.239 310.685 476.094 C 303.754 477.948 296.621 473.827 294.766 466.896 C 292.912 459.965 297.033 452.832 303.964 450.977 C 310.895 449.123 318.028 453.244 319.883 460.175 Z " fill="rgb(116,116,116)"/><line x1="300.742" y1="435.067" x2="308.966" y2="256.887" vector-effect="non-scaling-stroke" stroke-width="10" stroke="rgb(255,255,255)" stroke-linejoin="miter" stroke-linecap="square" stroke-miterlimit="3"/></g><g><path d=" M 114.064 426.597 C 102.817 437.827 84.568 437.814 73.338 426.566 C 62.108 415.319 62.122 397.07 73.369 385.84 C 84.616 374.61 102.865 374.624 114.095 385.871 C 125.325 397.118 125.312 415.367 114.064 426.597 Z " fill="rgb(255,255,255)"/><path d=" M 102.902 415.418 C 97.825 420.488 89.587 420.481 84.517 415.404 C 79.448 410.327 79.454 402.089 84.531 397.019 C 89.609 391.95 97.847 391.956 102.916 397.033 C 107.986 402.111 107.979 410.349 102.902 415.418 Z " fill="rgb(116,116,116)"/><line x1="115.088" y1="386.293" x2="273.542" y2="304.389" vector-effect="non-scaling-stroke" stroke-width="10" stroke="rgb(255,255,255)" stroke-linejoin="miter" stroke-linecap="square" stroke-miterlimit="3"/></g><g><path d=" M 29.136 220.445 C 13.783 216.331 4.66 200.527 8.774 185.174 C 12.888 169.822 28.692 160.698 44.044 164.812 C 59.396 168.926 68.52 184.731 64.406 200.083 C 60.292 215.435 44.488 224.559 29.136 220.445 Z " fill="rgb(255,255,255)"/><path d=" M 33.225 205.186 C 26.295 203.328 22.176 196.194 24.033 189.264 C 25.89 182.333 33.025 178.214 39.955 180.072 C 46.885 181.929 51.004 189.063 49.147 195.994 C 47.29 202.924 40.155 207.043 33.225 205.186 Z " fill="rgb(116,116,116)"/><line x1="64.538" y1="201.153" x2="214.766" y2="297.317" vector-effect="non-scaling-stroke" stroke-width="10" stroke="rgb(255,255,255)" stroke-linejoin="miter" stroke-linecap="square" stroke-miterlimit="3"/></g></g></svg>